<svg fill="none" height="64" viewBox="0 0 64 64" width="64" xmlns="http://www.w3.org/2000/svg" xmlns:xlink="http://www.w3.org/1999/xlink"><linearGradient id="a" gradientUnits="userSpaceOnUse" x1="23" x2="39" y1="38.5" y2="40"><stop offset="0" stop-color="#e381ec"/><stop offset="1" stop-color="#ec8181"/></linearGradient><path d="m23 27.7055c0-1.9977.7474-3.9231 2.0953-5.3976l1.8094-1.9794c1.3479-1.4745 2.0953-3.3999 2.0953-5.3976v-6.9309c0-.55229.4477-1 1-1h5c.5523 0 1 .44772 1 1v6.9309c0 1.9977.7474 3.9231 2.0953 5.3976l1.8094 1.9794c1.3479 1.4745 2.0953 3.3999 2.0953 5.3976v28.2945c0 1.1046-.8954 2-2 2h-15c-1.1046 0-2-.8954-2-2z" fill="#ffced9"/><path d="m23 30h16v19h-16z" fill="url(#a)"/><path d="m23 30h16v19h-16z" fill="#000" fill-opacity=".2"/></svg>