<svg fill="none" height="64" viewBox="0 0 64 64" width="64" xmlns="http://www.w3.org/2000/svg"><path d="m20.1727 32.4955c-.7042-4.1408 1.2542-8.2804 4.9023-10.3621l2.8346-1.6175c.5308-.3029.894-.8319.986-1.4362l1.1001-7.2301c.0744-.4886.4945-.8496.9886-.8496h3.0314c.4941 0 .9142.361.9886.8496l1.1001 7.2301c.092.6043.4552 1.1333.986 1.4362l2.8346 1.6175c3.6481 2.0817 5.6065 6.2213 4.9023 10.3621l-3.5442 20.8398c-.1635.9614-.9965 1.6647-1.9717 1.6647h-13.6228c-.9752 0-1.8082-.7033-1.9717-1.6647z" fill="#d27e4f"/><g fill="#d9d0c9"><path d="m27.8549 10.4961c-.3809-.66662.1005-1.4961.8683-1.4961h7.5536c.7678 0 1.2492.82948.8683 1.4961l-1.0133 1.7733c-.0864.1511-.1318.3221-.1318.4962v3.2344h-7v-3.2344c0-.1741-.0454-.3451-.1318-.4962z"/><path clip-rule="evenodd" d="m20.0637 30c-.0673.8204-.0338 1.6579.1086 2.4955l2.6368 15.5045h15.1905l1-18z" fill-rule="evenodd"/></g></svg>