<svg width="64" height="64" viewBox="0 0 64 64" fill="none" xmlns="http://www.w3.org/2000/svg">
<path d="M20.1727 32.4955C19.4685 28.3547 21.4269 24.2151 25.075 22.1334L27.9096 20.5159C28.4404 20.213 28.8036 19.684 28.8956 19.0797L29.9957 11.8496C30.0701 11.361 30.4902 11 30.9843 11H34.0157C34.5098 11 34.9299 11.361 35.0043 11.8496L36.1044 19.0797C36.1964 19.684 36.5596 20.213 37.0904 20.5159L39.925 22.1334C43.5731 24.2151 45.5315 28.3547 44.8273 32.4955L41.2831 53.3353C41.1196 54.2967 40.2866 55 39.3114 55H25.6886C24.7134 55 23.8804 54.2967 23.7169 53.3353L20.1727 32.4955Z" fill="#D27E4F"/>
<path d="M27.8549 10.4961C27.474 9.82948 27.9554 9 28.7232 9H36.2768C37.0446 9 37.526 9.82948 37.1451 10.4961L36.1318 12.2694C36.0454 12.4205 36 12.5915 36 12.7656V16H29V12.7656C29 12.5915 28.9546 12.4205 28.8682 12.2694L27.8549 10.4961Z" fill="#D9D0C9"/>
<path fill-rule="evenodd" clip-rule="evenodd" d="M20.0637 30C19.9964 30.8204 20.0299 31.6579 20.1723 32.4955L22.8091 48H37.9996L38.9996 30H20.0637Z" fill="#D9D0C9"/>
</svg>
