<svg fill="none" height="64" viewBox="0 0 64 64" width="64" xmlns="http://www.w3.org/2000/svg"><path d="m20 30.506c0-3.8775 1.8826-7.5136 5.0489-9.7518 2.2091-1.5615 3.5225-4.0983 3.5225-6.8035v-5.32984c0-.34289.278-.62086.6209-.62086h5.6154c.3429 0 .6209.27797.6209.62086v5.32984c0 2.7052 1.3134 5.242 3.5225 6.8035 3.1663 2.2382 5.0489 5.8743 5.0489 9.7518v23.494c0 1.1046-.8954 2-2 2h-20c-1.1046 0-2-.8954-2-2z" fill="#e0e4e1"/><path d="m20 30h20v18h-20z" fill="#afc8af"/><path d="m27.5615 7.93585c.0338-.52629.4705-.93585.9979-.93585h6.8812c.5274 0 .9641.40956.9979.93585l.0456.7081c.0104.16282-.0191.32573-.0861.47451l-.6474 1.43874c-.0669.1488-.0965.3117-.086.4745l.2273 3.5359h-7.7838l.2273-3.5359c.0105-.1628-.0191-.3257-.086-.4745l-.6474-1.43874c-.067-.14878-.0965-.31169-.0861-.47451z" fill="#ccd5cc"/></svg>