<svg width="64" height="64" viewBox="0 0 64 64" fill="none" xmlns="http://www.w3.org/2000/svg">
<path d="M20 30.506C20 26.6285 21.8826 22.9924 25.0489 20.7542C27.258 19.1927 28.5714 16.6559 28.5714 13.9507V8.62086C28.5714 8.27797 28.8494 8 29.1923 8H34.8077C35.1506 8 35.4286 8.27797 35.4286 8.62086V13.9507C35.4286 16.6559 36.742 19.1927 38.9511 20.7542C42.1174 22.9924 44 26.6285 44 30.506V54C44 55.1046 43.1046 56 42 56H22C20.8954 56 20 55.1046 20 54V30.506Z" fill="#E0E4E1"/>
<path d="M20 30H40V48H20V30Z" fill="#AFC8AF"/>
<path d="M27.5615 7.93585C27.5953 7.40956 28.032 7 28.5594 7H35.4406C35.968 7 36.4047 7.40956 36.4385 7.93585L36.4841 8.64395C36.4945 8.80677 36.465 8.96968 36.398 9.11846L35.7506 10.5572C35.6837 10.706 35.6541 10.8689 35.6646 11.0317L35.8919 14.5676H28.1081L28.3354 11.0317C28.3459 10.8689 28.3163 10.706 28.2494 10.5572L27.602 9.11846C27.535 8.96968 27.5055 8.80677 27.5159 8.64395L27.5615 7.93585Z" fill="#CCD5CC"/>
</svg>
