<svg fill="none" height="88" viewBox="0 0 165 88" width="165" xmlns="http://www.w3.org/2000/svg"><path d="m0 40.3343c0-6.9226 3.57991-13.353 9.46412-16.9998l2.03588-1.2618.6844-20.14062c.0366-1.077507.9207-1.93208 1.9988-1.93208h9.6336c1.0781 0 1.9622.854571 1.9988 1.93208l.6844 20.14062 2.0359 1.2618c5.8842 3.6468 9.4641 10.0772 9.4641 16.9999v43.6656c0 2.2091-1.7909 4-4 4h-30c-2.20914 0-4-1.7909-4-4z" fill="#362929"/><path d="m0 42h165v26h-165z" fill="#ffc700"/><g fill="#362929"><path d="m4.7998 63.5v-17.52h5.208c1.184 0 2.208.224 3.072.672.88.448 1.56 1.08 2.04 1.896s.72 1.784.72 2.904v6.552c0 1.104-.24 2.072-.72 2.904-.48.816-1.16 1.456-2.04 1.92-.864.448-1.888.672-3.072.672zm3-2.76h2.208c.864 0 1.552-.24 2.064-.72.512-.496.768-1.168.768-2.016v-6.552c0-.832-.256-1.488-.768-1.968-.512-.496-1.2-.744-2.064-.744h-2.208z"/><path d="m19.5504 63.5v-2.64h3.528v-12.24h-3.528v-2.64h10.08v2.64h-3.528v12.24h3.528v2.64z"/><path d="m34.2531 63.5v-17.52h3v14.736h7.44v2.784z"/><path d="m48.6437 63.5v-17.52h3v14.736h7.44v2.784z"/><path d="m62.7223 63.5v-2.64h3.528v-12.24h-3.528v-2.64h10.08v2.64h-3.528v12.24h3.528v2.64z"/><path d="m91.1436 63.5v-17.52h5.208c1.184 0 2.208.224 3.072.672.8804.448 1.5604 1.08 2.0404 1.896s.72 1.784.72 2.904v6.552c0 1.104-.24 2.072-.72 2.904-.48.816-1.16 1.456-2.0404 1.92-.864.448-1.888.672-3.072.672zm3-2.76h2.208c.864 0 1.5519-.24 2.064-.72.512-.496.768-1.168.768-2.016v-6.552c0-.832-.256-1.488-.768-1.968-.5121-.496-1.2-.744-2.064-.744h-2.208z"/><path d="m104.574 63.5 4.416-17.52h3.864l4.44 17.52h-3.072l-.96-4.248h-4.656l-.96 4.248zm4.584-6.696h3.552l-1.056-4.704c-.176-.784-.328-1.488-.456-2.112-.128-.64-.216-1.104-.264-1.392-.048.288-.136.752-.264 1.392-.112.624-.264 1.32-.456 2.088z"/><path d="m118.965 63.5 4.416-17.52h3.864l4.44 17.52h-3.072l-.96-4.248h-4.656l-.96 4.248zm4.584-6.696h3.552l-1.056-4.704c-.176-.784-.328-1.488-.456-2.112-.128-.64-.216-1.104-.264-1.392-.048.288-.136.752-.264 1.392-.112.624-.264 1.32-.456 2.088z"/><path d="m134.339 63.5v-17.52h5.544c1.168 0 2.176.216 3.024.648.864.432 1.536 1.04 2.016 1.824.48.768.72 1.68.72 2.736 0 1.152-.296 2.168-.888 3.048-.576.88-1.36 1.504-2.352 1.872l3.48 7.392h-3.36l-3.048-6.96h-2.136v6.96zm3-9.6h2.544c.848 0 1.512-.232 1.992-.696s.72-1.104.72-1.92c0-.832-.24-1.48-.72-1.944-.48-.48-1.144-.72-1.992-.72h-2.544z"/><path d="m154.106 63.74c-1.712 0-3.056-.464-4.032-1.392-.96-.944-1.44-2.224-1.44-3.84v-12.528h3.024v12.504c0 .832.208 1.48.624 1.944s1.024.696 1.824.696c.784 0 1.384-.232 1.8-.696.432-.464.648-1.112.648-1.944v-12.504h3.024v12.528c0 1.616-.48 2.896-1.44 3.84-.96.928-2.304 1.392-4.032 1.392z"/></g></svg>