<svg fill="none" height="64" viewBox="0 0 64 64" width="64" xmlns="http://www.w3.org/2000/svg"><path d="m29.1234 10.1104c-.0658-.59233.3979-1.1104.9939-1.1104h4.7654c.596 0 1.0597.51807.9939 1.1104l-.7778 7c-.0562.5065-.4843.8896-.9938.8896h-3.21c-.5095 0-.9376-.3831-.9938-.8896z" fill="#62534d"/><path d="m21 27.6524c0-1.2884.6206-2.4979 1.6673-3.2493l5.3239-3.822c.4809-.3453.7842-.8858.8282-1.4762l.2367-3.1792c.0388-.522.4737-.9257.9972-.9257h4.8934c.5235 0 .9584.4037.9972.9257l.2367 3.1792c.044.5904.3473 1.1309.8282 1.4762l5.3239 3.822c1.0467.7514 1.6673 1.9609 1.6673 3.2494v25.3475c0 1.1046-.8954 2-2 2h-19c-1.1046 0-2-.8954-2-2z" fill="#e3e3e3"/><path d="m21 31h19v18h-19z" fill="#4d8fb1"/></svg>