<svg fill="none" height="64" viewBox="0 0 64 64" width="64" xmlns="http://www.w3.org/2000/svg"><path d="m21 27.6524c0-1.2884.6206-2.4979 1.6673-3.2493l5.3239-3.822c.4809-.3453.7842-.8858.8282-1.4762l.2367-3.1792c.0388-.522.4737-.9257.9972-.9257h4.8934c.5235 0 .9584.4037.9972.9257l.2367 3.1792c.044.5904.3473 1.1309.8282 1.4762l5.3239 3.822c1.0467.7514 1.6673 1.9609 1.6673 3.2494v25.3475c0 1.1046-.8954 2-2 2h-19c-1.1046 0-2-.8954-2-2z" fill="#426f59"/><path d="m27.9337 9.92875c.0373-.5233.4728-.92875.9974-.92875h7.1378c.5246 0 .9601.40545.9974.92875l.0392.54795c.0128.1789-.0228.358-.1031.5184l-.6298 1.2598c-.0803.1604-.1159.3395-.1031.5184l.2305 3.2267h-8l.2305-3.2267c.0128-.1789-.0228-.358-.1031-.5184l-.6298-1.2598c-.0803-.1604-.1159-.3395-.1031-.5184z" fill="#36433d"/><path d="m21 31h17c.5523 0 1 .4477 1 1v16c0 .5523-.4477 1-1 1h-17z" fill="#9ed9b6"/></svg>