<svg width="64" height="64" viewBox="0 0 64 64" fill="none" xmlns="http://www.w3.org/2000/svg">
<path d="M21 27.6524C21 26.364 21.6206 25.1545 22.6673 24.4031L27.9912 20.5811C28.4721 20.2358 28.7754 19.6953 28.8194 19.1049L29.0561 15.9257C29.0949 15.4037 29.5298 15 30.0533 15H34.9467C35.4702 15 35.9051 15.4037 35.9439 15.9257L36.1806 19.1049C36.2246 19.6953 36.5279 20.2358 37.0088 20.5811L42.3327 24.4031C43.3794 25.1545 44 26.364 44 27.6525V53C44 54.1046 43.1046 55 42 55H23C21.8954 55 21 54.1046 21 53V27.6524Z" fill="#426F59"/>
<path d="M27.9337 9.92875C27.971 9.40545 28.4065 9 28.9311 9H36.0689C36.5935 9 37.029 9.40545 37.0663 9.92875L37.1055 10.4767C37.1183 10.6556 37.0827 10.8347 37.0024 10.9951L36.3726 12.2549C36.2923 12.4153 36.2567 12.5944 36.2695 12.7733L36.5 16H28.5L28.7305 12.7733C28.7433 12.5944 28.7077 12.4153 28.6274 12.2549L27.9976 10.9951C27.9173 10.8347 27.8817 10.6556 27.8945 10.4767L27.9337 9.92875Z" fill="#36433D"/>
<path d="M21 31H38C38.5523 31 39 31.4477 39 32V48C39 48.5523 38.5523 49 38 49H21V31Z" fill="#9ED9B6"/>
</svg>
