<svg width="64" height="64" viewBox="0 0 64 64" fill="none" xmlns="http://www.w3.org/2000/svg">
<path d="M22 29.2524C22 25.646 23.4925 22.2005 26.1233 19.7337C27.9587 18.0128 29 15.6089 29 13.0928V4.93147C29 4.41703 29.417 4 29.9315 4H34.0685C34.583 4 35 4.41704 35 4.93147V13.0928C35 15.6089 36.0413 18.0128 37.8767 19.7337C40.5075 22.2005 42 25.646 42 29.2524V57C42 58.1046 41.1046 59 40 59H24C22.8954 59 22 58.1046 22 57V29.2524Z" fill="#868686"/>
<path d="M22 29H39V50H22V29Z" fill="white"/>
<path d="M28.1676 41.77L28.0776 38.08H29.8776C30.3696 38.08 30.7596 37.96 31.0476 37.72C31.3356 37.468 31.4796 37.138 31.4796 36.73C31.4796 36.31 31.3296 35.98 31.0296 35.74C30.7416 35.5 30.3516 35.38 29.8596 35.38H26.8896V32.86H29.6796C30.6036 32.86 31.4016 33.022 32.0736 33.346C32.7456 33.658 33.2616 34.102 33.6216 34.678C33.9936 35.254 34.1796 35.938 34.1796 36.73C34.1796 37.486 34.0236 38.146 33.7116 38.71C33.3996 39.274 32.9616 39.718 32.3976 40.042C31.8336 40.354 31.1736 40.51 30.4176 40.51V41.77H28.1676ZM29.0316 46.09C28.6236 46.09 28.2936 45.976 28.0416 45.748C27.8016 45.508 27.6816 45.202 27.6816 44.83C27.6816 44.446 27.8016 44.14 28.0416 43.912C28.2936 43.684 28.6236 43.57 29.0316 43.57H29.5716C29.9796 43.57 30.3036 43.684 30.5436 43.912C30.7956 44.14 30.9216 44.446 30.9216 44.83C30.9216 45.214 30.7956 45.52 30.5436 45.748C30.3036 45.976 29.9736 46.09 29.5536 46.09H29.0316Z" fill="#868686"/>
</svg>
