<svg width="64" height="64" viewBox="0 0 64 64" fill="none" xmlns="http://www.w3.org/2000/svg">
<path d="M22 29.2524C22 25.646 23.4925 22.2005 26.1233 19.7337V19.7337C27.9587 18.0128 29 15.6089 29 13.0928V4.93147C29 4.41703 29.417 4 29.9315 4H34.0685C34.583 4 35 4.41704 35 4.93147V13.0928C35 15.6089 36.0413 18.0128 37.8767 19.7337V19.7337C40.5075 22.2005 42 25.646 42 29.2524V57C42 58.1046 41.1046 59 40 59H24C22.8954 59 22 58.1046 22 57V29.2524Z" fill="#868686"/>
<path d="M22 29H39V50H22V29Z" fill="white"/>
<path d="M28.1676 41.7701L28.0776 38.0801H29.8776C30.3696 38.0801 30.7596 37.9601 31.0476 37.7201C31.3356 37.4681 31.4796 37.1381 31.4796 36.7301C31.4796 36.3101 31.3296 35.9801 31.0296 35.7401C30.7416 35.5001 30.3516 35.3801 29.8596 35.3801H26.8896V32.8601H29.6796C30.6036 32.8601 31.4016 33.0221 32.0736 33.3461C32.7456 33.6581 33.2616 34.1021 33.6216 34.6781C33.9936 35.2541 34.1796 35.9381 34.1796 36.7301C34.1796 37.4861 34.0236 38.1461 33.7116 38.7101C33.3996 39.2741 32.9616 39.7181 32.3976 40.0421C31.8336 40.3541 31.1736 40.5101 30.4176 40.5101V41.7701H28.1676ZM29.0316 46.0901C28.6236 46.0901 28.2936 45.9761 28.0416 45.7481C27.8016 45.5081 27.6816 45.2021 27.6816 44.8301C27.6816 44.4461 27.8016 44.1401 28.0416 43.9121C28.2936 43.6841 28.6236 43.5701 29.0316 43.5701H29.5716C29.9796 43.5701 30.3036 43.6841 30.5436 43.9121C30.7956 44.1401 30.9216 44.4461 30.9216 44.8301C30.9216 45.2141 30.7956 45.5201 30.5436 45.7481C30.3036 45.9761 29.9736 46.0901 29.5536 46.0901H29.0316Z" fill="#868686"/>
</svg>
