<svg width="64" height="64" viewBox="0 0 64 64" fill="none" xmlns="http://www.w3.org/2000/svg">
<path d="M21.0727 27.7379C21.0273 26.4021 21.652 25.1319 22.7377 24.3525L28.0658 20.5275C28.5033 20.2134 28.7957 19.7362 28.8767 19.2037L29.9957 11.8496C30.0701 11.361 30.4902 11 30.9843 11H34.0157C34.5098 11 34.9299 11.361 35.0043 11.8496L36.1233 19.2037C36.2043 19.7362 36.4967 20.2134 36.9342 20.5275L42.2623 24.3525C43.348 25.1319 43.9727 26.4021 43.9273 27.7379L43.0657 53.068C43.0291 54.1455 42.145 55 41.0669 55H23.9331C22.855 55 21.9709 54.1455 21.9343 53.068L21.0727 27.7379Z" fill="#D27E4F"/>
<path d="M21.7958 49L21.1836 31H39.9999L39.5 49H21.7958Z" fill="#56543E"/>
<path d="M35.2899 40.1792C35.5494 40.0847 35.8363 40.2185 35.9308 40.478L36.2728 41.4177C36.3672 41.6772 36.2334 41.9641 35.974 42.0586L35.134 42.3643C35.0682 42.3882 34.9982 42.3981 34.9284 42.3933L33.5026 42.2945C33.4328 42.2897 33.3627 42.2995 33.297 42.3235L30.5776 43.3132L27.8583 44.303C27.7925 44.3269 27.7325 44.3644 27.6822 44.4129L26.6534 45.4051C26.6031 45.4537 26.5431 45.4911 26.4773 45.5151L25.6373 45.8208C25.3779 45.9152 25.0909 45.7814 24.9965 45.522L24.6545 44.5823C24.56 44.3228 24.6938 44.0359 24.9533 43.9414L25.7808 43.6402C25.8545 43.6134 25.9336 43.6043 26.0116 43.6137L27.3369 43.7733C27.4149 43.7827 27.4939 43.7736 27.5677 43.7467L30.2746 42.7615L32.9937 41.7719C33.0596 41.7479 33.1197 41.7103 33.1701 41.6616L34.2737 40.5951C34.3242 40.5464 34.3843 40.5088 34.4502 40.4848L35.2899 40.1792Z" fill="#615D39"/>
<path d="M35.9755 43.9415C36.235 44.036 36.3687 44.3229 36.2743 44.5824L35.9323 45.5221C35.8378 45.7816 35.5509 45.9154 35.2914 45.8209L34.4514 45.5152C34.3857 45.4913 34.3257 45.4538 34.2754 45.4052L33.2466 44.4131C33.1962 44.3645 33.1362 44.327 33.0705 44.3031L30.3511 43.3134L27.6318 42.3236C27.566 42.2997 27.496 42.2898 27.4262 42.2946L26.0004 42.3934C25.9306 42.3982 25.8605 42.3884 25.7948 42.3644L24.9548 42.0587C24.6953 41.9643 24.5615 41.6773 24.656 41.4178L24.998 40.4782C25.0924 40.2187 25.3794 40.0849 25.6388 40.1793L26.4663 40.4805C26.5401 40.5073 26.6065 40.5512 26.6602 40.6085L27.5729 41.5827C27.6265 41.64 27.693 41.6839 27.7667 41.7107L30.4736 42.6959L33.1927 43.6856C33.2586 43.7096 33.3288 43.7195 33.3988 43.7145L34.9297 43.607C34.9996 43.6021 35.0698 43.6119 35.1357 43.6359L35.9755 43.9415Z" fill="#615D39"/>
<path d="M33.7226 35.132C34.0708 35.9514 33.5624 36.8025 33.0531 37.5329C32.0135 39.0238 32.0657 40.5 30.5 40.5C28.9343 40.5 28.9865 39.0238 27.9469 37.5329C27.4376 36.8025 26.9292 35.9514 27.2774 35.132C27.8101 33.8788 29.0524 33 30.5 33C31.9476 33 33.1899 33.8788 33.7226 35.132Z" fill="#615D39"/>
<path d="M29 10C29 9.44772 29.4477 9 30 9H35C35.5523 9 36 9.44772 36 10V16H29V10Z" fill="#56543E"/>
</svg>
