<svg fill="none" height="64" viewBox="0 0 64 64" width="64" xmlns="http://www.w3.org/2000/svg"><path d="m21.0727 27.7379c-.0454-1.3358.5793-2.606 1.665-3.3854l5.3281-3.825c.4375-.3141.7299-.7913.8109-1.3238l1.119-7.3541c.0744-.4886.4945-.8496.9886-.8496h3.0314c.4941 0 .9142.361.9886.8496l1.119 7.3541c.081.5325.3734 1.0097.8109 1.3238l5.3281 3.825c1.0857.7794 1.7104 2.0496 1.665 3.3854l-.8616 25.3301c-.0366 1.0775-.9207 1.932-1.9988 1.932h-17.1338c-1.0781 0-1.9622-.8545-1.9988-1.932z" fill="#d27e4f"/><path d="m21.7958 49-.6122-18h18.8163l-.4999 18z" fill="#56543e"/><g fill="#615d39"><path d="m35.2899 40.1793c.2595-.0944.5464.0394.6409.2988l.342.9397c.0944.2595-.0394.5464-.2988.6409l-.84.3057c-.0658.024-.1358.0338-.2056.029l-1.4258-.0988c-.0698-.0048-.1399.005-.2056.029l-2.7194.9897-2.7193.9898c-.0658.0239-.1258.0614-.1761.11l-1.0288.9921c-.0503.0486-.1103.0861-.1761.11l-.84.3057c-.2594.0945-.5464-.0393-.6408-.2988l-.342-.9397c-.0945-.2595.0393-.5464.2988-.6409l.8275-.3011c.0737-.0269.1528-.036.2308-.0266l1.3253.1596c.078.0094.157.0003.2308-.0265l2.7069-.9852 2.7191-.9897c.0659-.024.126-.0616.1764-.1103l1.1036-1.0665c.0505-.0487.1106-.0863.1765-.1102z"/><path d="m35.9755 43.9415c.2595.0945.3932.3814.2988.6409l-.342.9397c-.0945.2595-.3814.3933-.6409.2988l-.84-.3057c-.0657-.0239-.1257-.0614-.176-.11l-1.0288-.9921c-.0504-.0486-.1104-.0861-.1761-.11l-2.7194-.9897-2.7193-.9898c-.0658-.0239-.1358-.0338-.2056-.029l-1.4258.0988c-.0698.0048-.1399-.005-.2056-.029l-.84-.3057c-.2595-.0944-.3933-.3814-.2988-.6409l.342-.9396c.0944-.2595.3814-.3933.6408-.2989l.8275.3012c.0738.0268.1402.0707.1939.128l.9127.9742c.0536.0573.1201.1012.1938.128l2.7069.9852 2.7191.9897c.0659.024.1361.0339.2061.0289l1.5309-.1075c.0699-.0049.1401.0049.206.0289z"/><path d="m33.7226 35.132c.3482.8194-.1602 1.6705-.6695 2.4009-1.0396 1.4909-.9874 2.9671-2.5531 2.9671s-1.5135-1.4762-2.5531-2.9671c-.5093-.7304-1.0177-1.5815-.6695-2.4009.5327-1.2532 1.775-2.132 3.2226-2.132s2.6899.8788 3.2226 2.132z"/></g></svg>