<svg fill="none" height="64" viewBox="0 0 64 64" width="64" xmlns="http://www.w3.org/2000/svg" xmlns:xlink="http://www.w3.org/1999/xlink"><radialGradient id="a" cx="0" cy="0" gradientTransform="matrix(.0002688 38.5025 -23.9918 .00016749 32 18)" gradientUnits="userSpaceOnUse" r="1"><stop offset="0" stop-color="#394ae8"/><stop offset="1" stop-color="#1f2b8e"/></radialGradient><path d="m28.9997 17.0104v-10.16879c0-.46481.3768-.84161.8416-.84161h4.3168c.4648 0 .8416.3768.8416.84161v10.16879c0 16.8303 25.439 24.5772 5.0719 39.1172-.3326.2374-.7486.3745-1.1573.3743-2.5187-.0017-11.1812-.0017-13.8315 0-.4081.0003-.8221-.1367-1.1543-.3738-20.35736-14.5329 5.0712-22.288 5.0712-39.1177z" fill="url(#a)"/><path d="m18.3285 51c-3.9159-5.0823-2.2661-9.4401.7858-14h20.7764c5.1093 5 6.6093 8.5.7818 14z" fill="#fff" fill-opacity=".4"/></svg>