<svg width="64" height="64" viewBox="0 0 64 64" fill="none" xmlns="http://www.w3.org/2000/svg">
<rect width="64" height="64" fill="white"/>
<path d="M24 28.4603C24 25.3074 25.0347 22.2418 26.9452 19.7337C28.2781 17.984 29 15.8451 29 13.6455V5C29 4.44771 29.4477 4 30 4H34C34.5523 4 35 4.44772 35 5V13.6455C35 15.8451 35.7219 17.984 37.0548 19.7337C38.9653 22.2418 40 25.3074 40 28.4603V57C40 58.1046 39.1046 59 38 59H26C24.8954 59 24 58.1046 24 57V28.4603Z" fill="#DFE3E8"/>
<rect x="24" y="30" width="13" height="18" fill="#00A591"/>
</svg>
