<svg fill="none" height="64" viewBox="0 0 64 64" width="64" xmlns="http://www.w3.org/2000/svg"><path d="m29.1234 7.11043c-.0658-.59237.3979-1.11043.9939-1.11043h3.7654c.596 0 1.0597.51807.9939 1.11043l-.6349 5.71427c-.0563.5065-.4843.8896-.9939.8896h-2.4956c-.5096 0-.9376-.3831-.9939-.8896z" fill="#62534d"/><path d="m19 29.6671c0-2.5557 1.2211-4.9577 3.2861-6.4636l4.3152-3.1471c.8925-.6509 1.4761-1.6418 1.6125-2.7379l.6771-5.442c.0623-.5007.4878-.8765.9924-.8765h4.2334c.5046 0 .9301.3758.9924.8765l.6771 5.442c.1364 1.0961.72 2.087 1.6125 2.7379l4.3152 3.1471c2.065 1.5059 3.2861 3.9079 3.2861 6.4636v26.3329c0 1.1046-.8954 2-2 2h-22c-1.1046 0-2-.8954-2-2z" fill="#dfd0ca"/><path d="m19 32h23v18h-23z" fill="#7b4a36"/></svg>