<svg fill="none" height="64" viewBox="0 0 64 64" width="64" xmlns="http://www.w3.org/2000/svg"><path d="m23.9774 33.5645c.0148-4.2884 1.2447-8.4847 3.5473-12.1025.6383-1.0029.9904-2.1611 1.0182-3.3495l.2392-10.23123c.0102-.43442.3653-.78129.7998-.78129h3.837c.4345 0 .7896.34687.7998.78129l.2394 10.24043c.0277 1.1824.3779 2.3348 1.0129 3.3326 2.3048 3.6219 3.529 7.826 3.529 12.1191v20.816c0 .8878-.7228 1.6058-1.6106 1.5999l-11.8941-.0788c-.8817-.0058-1.5925-.7238-1.5894-1.6054z" fill="#536a0d"/><path d="m24 34h12v13h-12z" fill="#a4a574"/></svg>